<?xml version="1.0" encoding="UTF-8" standalone="no"?>
<svg
   width="21"
   height="21"
   fill="currentColor"
   version="1.1"
   id="svg1"
   sodipodi:docname="chevron.svg"
   inkscape:version="1.4.3 (0d15f75, 2025-12-25)"
   xmlns:inkscape="http://www.inkscape.org/namespaces/inkscape"
   xmlns:sodipodi="http://sodipodi.sourceforge.net/DTD/sodipodi-0.dtd"
   xmlns="http://www.w3.org/2000/svg"
   xmlns:svg="http://www.w3.org/2000/svg">
  <defs
     id="defs1" />
  <sodipodi:namedview
     id="namedview1"
     pagecolor="#ffffff"
     bordercolor="#000000"
     borderopacity="0.25"
     inkscape:showpageshadow="2"
     inkscape:pageopacity="0.0"
     inkscape:pagecheckerboard="0"
     inkscape:deskcolor="#d1d1d1"
     inkscape:zoom="14.375"
     inkscape:cx="9.6"
     inkscape:cy="9.6"
     inkscape:window-width="1710"
     inkscape:window-height="495"
     inkscape:window-x="0"
     inkscape:window-y="40"
     inkscape:window-maximized="0"
     inkscape:current-layer="svg1" />
  <path
     d="m 18.3,10.5 c 0,4.3088 -3.4912,7.8 -7.8,7.8 -4.30875,0 -7.8,-3.4912 -7.8,-7.8 0,-4.30875 3.49125,-7.8 7.8,-7.8 4.3088,0 7.8,3.49125 7.8,7.8 z m -17.4,0 c 0,5.3025 4.2975,9.6 9.6,9.6 5.3025,0 9.6,-4.2975 9.6,-9.6 0,-5.3025 -4.2975,-9.6 -9.6,-9.6 -5.3025,0 -9.6,4.2975 -9.6,9.6 z m 9.0375,4.5375 3.9,-3.9 c 0.3525,-0.3525 0.3525,-0.9225 0,-1.27125 L 9.9375,5.9625 C 9.585,5.61 9.015,5.61 8.66625,5.9625 c -0.34875,0.3525 -0.3525,0.9225 0,1.27125 l 3.26255,3.2625 -3.26255,3.26255 c -0.3525,0.3525 -0.3525,0.9224 0,1.2712 0.3525,0.3488 0.9225,0.3525 1.27125,0 z"
     id="path1" />
</svg>
